<?xml version='1.0' encoding='UTF-8'?>
<svg width="82mm" height="82mm" version="1.1" viewBox="0 0 82 82" xmlns="http://www.w3.org/2000/svg"><path d="M4,4H6V6H4zM6,4H8V6H6zM8,4H10V6H8zM10,4H12V6H10zM12,4H14V6H12zM14,4H16V6H14zM16,4H18V6H16zM22,4H24V6H22zM26,4H28V6H26zM30,4H32V6H30zM34,4H36V6H34zM36,4H38V6H36zM42,4H44V6H42zM44,4H46V6H44zM48,4H50V6H48zM52,4H54V6H52zM54,4H56V6H54zM56,4H58V6H56zM60,4H62V6H60zM64,4H66V6H64zM66,4H68V6H66zM68,4H70V6H68zM70,4H72V6H70zM72,4H74V6H72zM74,4H76V6H74zM76,4H78V6H76zM4,6H6V8H4zM16,6H18V8H16zM20,6H22V8H20zM22,6H24V8H22zM26,6H28V8H26zM42,6H44V8H42zM46,6H48V8H46zM52,6H54V8H52zM54,6H56V8H54zM60,6H62V8H60zM64,6H66V8H64zM76,6H78V8H76zM4,8H6V10H4zM8,8H10V10H8zM10,8H12V10H10zM12,8H14V10H12zM16,8H18V10H16zM20,8H22V10H20zM24,8H26V10H24zM28,8H30V10H28zM32,8H34V10H32zM36,8H38V10H36zM38,8H40V10H38zM40,8H42V10H40zM44,8H46V10H44zM48,8H50V10H48zM50,8H52V10H50zM52,8H54V10H52zM54,8H56V10H54zM58,8H60V10H58zM64,8H66V10H64zM68,8H70V10H68zM70,8H72V10H70zM72,8H74V10H72zM76,8H78V10H76zM4,10H6V12H4zM8,10H10V12H8zM10,10H12V12H10zM12,10H14V12H12zM16,10H18V12H16zM20,10H22V12H20zM22,10H24V12H22zM24,10H26V12H24zM26,10H28V12H26zM34,10H36V12H34zM36,10H38V12H36zM38,10H40V12H38zM40,10H42V12H40zM46,10H48V12H46zM54,10H56V12H54zM56,10H58V12H56zM58,10H60V12H58zM64,10H66V12H64zM68,10H70V12H68zM70,10H72V12H70zM72,10H74V12H72zM76,10H78V12H76zM4,12H6V14H4zM8,12H10V14H8zM10,12H12V14H10zM12,12H14V14H12zM16,12H18V14H16zM20,12H22V14H20zM22,12H24V14H22zM24,12H26V14H24zM28,12H30V14H28zM30,12H32V14H30zM34,12H36V14H34zM36,12H38V14H36zM40,12H42V14H40zM42,12H44V14H42zM44,12H46V14H44zM46,12H48V14H46zM50,12H52V14H50zM52,12H54V14H52zM54,12H56V14H54zM56,12H58V14H56zM60,12H62V14H60zM64,12H66V14H64zM68,12H70V14H68zM70,12H72V14H70zM72,12H74V14H72zM76,12H78V14H76zM4,14H6V16H4zM16,14H18V16H16zM20,14H22V16H20zM32,14H34V16H32zM34,14H36V16H34zM42,14H44V16H42zM44,14H46V16H44zM46,14H48V16H46zM50,14H52V16H50zM52,14H54V16H52zM60,14H62V16H60zM64,14H66V16H64zM76,14H78V16H76zM4,16H6V18H4zM6,16H8V18H6zM8,16H10V18H8zM10,16H12V18H10zM12,16H14V18H12zM14,16H16V18H14zM16,16H18V18H16zM20,16H22V18H20zM24,16H26V18H24zM28,16H30V18H28zM32,16H34V18H32zM36,16H38V18H36zM40,16H42V18H40zM44,16H46V18H44zM48,16H50V18H48zM52,16H54V18H52zM56,16H58V18H56zM60,16H62V18H60zM64,16H66V18H64zM66,16H68V18H66zM68,16H70V18H68zM70,16H72V18H70zM72,16H74V18H72zM74,16H76V18H74zM76,16H78V18H76zM22,18H24V20H22zM32,18H34V20H32zM34,18H36V20H34zM42,18H44V20H42zM46,18H48V20H46zM48,18H50V20H48zM50,18H52V20H50zM52,18H54V20H52zM56,18H58V20H56zM58,18H60V20H58zM60,18H62V20H60zM8,20H10V22H8zM14,20H16V22H14zM16,20H18V22H16zM18,20H20V22H18zM20,20H22V22H20zM24,20H26V22H24zM26,20H28V22H26zM28,20H30V22H28zM30,20H32V22H30zM32,20H34V22H32zM34,20H36V22H34zM40,20H42V22H40zM46,20H48V22H46zM48,20H50V22H48zM54,20H56V22H54zM56,20H58V22H56zM60,20H62V22H60zM62,20H64V22H62zM66,20H68V22H66zM68,20H70V22H68zM70,20H72V22H70zM72,20H74V22H72zM74,20H76V22H74zM4,22H6V24H4zM6,22H8V24H6zM12,22H14V24H12zM18,22H20V24H18zM20,22H22V24H20zM26,22H28V24H26zM28,22H30V24H28zM32,22H34V24H32zM36,22H38V24H36zM38,22H40V24H38zM40,22H42V24H40zM42,22H44V24H42zM44,22H46V24H44zM46,22H48V24H46zM50,22H52V24H50zM52,22H54V24H52zM54,22H56V24H54zM56,22H58V24H56zM60,22H62V24H60zM72,22H74V24H72zM76,22H78V24H76zM12,24H14V26H12zM16,24H18V26H16zM18,24H20V26H18zM24,24H26V26H24zM26,24H28V26H26zM28,24H30V26H28zM30,24H32V26H30zM32,24H34V26H32zM42,24H44V26H42zM52,24H54V26H52zM60,24H62V26H60zM62,24H64V26H62zM64,24H66V26H64zM68,24H70V26H68zM72,24H74V26H72zM76,24H78V26H76zM4,26H6V28H4zM6,26H8V28H6zM8,26H10V28H8zM14,26H16V28H14zM18,26H20V28H18zM28,26H30V28H28zM32,26H34V28H32zM46,26H48V28H46zM50,26H52V28H50zM56,26H58V28H56zM58,26H60V28H58zM60,26H62V28H60zM66,26H68V28H66zM70,26H72V28H70zM4,28H6V30H4zM6,28H8V30H6zM10,28H12V30H10zM14,28H16V30H14zM16,28H18V30H16zM20,28H22V30H20zM22,28H24V30H22zM24,28H26V30H24zM26,28H28V30H26zM30,28H32V30H30zM32,28H34V30H32zM34,28H36V30H34zM40,28H42V30H40zM42,28H44V30H42zM44,28H46V30H44zM48,28H50V30H48zM50,28H52V30H50zM52,28H54V30H52zM64,28H66V30H64zM66,28H68V30H66zM70,28H72V30H70zM74,28H76V30H74zM76,28H78V30H76zM6,30H8V32H6zM8,30H10V32H8zM10,30H12V32H10zM12,30H14V32H12zM18,30H20V32H18zM22,30H24V32H22zM24,30H26V32H24zM30,30H32V32H30zM32,30H34V32H32zM36,30H38V32H36zM38,30H40V32H38zM42,30H44V32H42zM44,30H46V32H44zM48,30H50V32H48zM50,30H52V32H50zM52,30H54V32H52zM54,30H56V32H54zM58,30H60V32H58zM60,30H62V32H60zM62,30H64V32H62zM64,30H66V32H64zM66,30H68V32H66zM72,30H74V32H72zM76,30H78V32H76zM8,32H10V34H8zM10,32H12V34H10zM14,32H16V34H14zM16,32H18V34H16zM18,32H20V34H18zM22,32H24V34H22zM24,32H26V34H24zM26,32H28V34H26zM32,32H34V34H32zM36,32H38V34H36zM38,32H40V34H38zM42,32H44V34H42zM44,32H46V34H44zM46,32H48V34H46zM52,32H54V34H52zM58,32H60V34H58zM68,32H70V34H68zM70,32H72V34H70zM72,32H74V34H72zM76,32H78V34H76zM8,34H10V36H8zM12,34H14V36H12zM14,34H16V36H14zM18,34H20V36H18zM28,34H30V36H28zM30,34H32V36H30zM38,34H40V36H38zM40,34H42V36H40zM42,34H44V36H42zM46,34H48V36H46zM52,34H54V36H52zM56,34H58V36H56zM58,34H60V36H58zM60,34H62V36H60zM64,34H66V36H64zM66,34H68V36H66zM68,34H70V36H68zM70,34H72V36H70zM4,36H6V38H4zM6,36H8V38H6zM14,36H16V38H14zM16,36H18V38H16zM18,36H20V38H18zM20,36H22V38H20zM22,36H24V38H22zM24,36H26V38H24zM28,36H30V38H28zM34,36H36V38H34zM44,36H46V38H44zM60,36H62V38H60zM64,36H66V38H64zM66,36H68V38H66zM76,36H78V38H76zM4,38H6V40H4zM6,38H8V40H6zM10,38H12V40H10zM18,38H20V40H18zM20,38H22V40H20zM26,38H28V40H26zM30,38H32V40H30zM32,38H34V40H32zM34,38H36V40H34zM38,38H40V40H38zM42,38H44V40H42zM44,38H46V40H44zM54,38H56V40H54zM58,38H60V40H58zM60,38H62V40H60zM64,38H66V40H64zM72,38H74V40H72zM76,38H78V40H76zM8,40H10V42H8zM12,40H14V42H12zM14,40H16V42H14zM16,40H18V42H16zM20,40H22V42H20zM22,40H24V42H22zM24,40H26V42H24zM26,40H28V42H26zM28,40H30V42H28zM34,40H36V42H34zM42,40H44V42H42zM56,40H58V42H56zM58,40H60V42H58zM62,40H64V42H62zM64,40H66V42H64zM66,40H68V42H66zM70,40H72V42H70zM72,40H74V42H72zM76,40H78V42H76zM6,42H8V44H6zM12,42H14V44H12zM20,42H22V44H20zM22,42H24V44H22zM24,42H26V44H24zM30,42H32V44H30zM34,42H36V44H34zM36,42H38V44H36zM38,42H40V44H38zM40,42H42V44H40zM42,42H44V44H42zM44,42H46V44H44zM46,42H48V44H46zM56,42H58V44H56zM58,42H60V44H58zM60,42H62V44H60zM62,42H64V44H62zM70,42H72V44H70zM74,42H76V44H74zM6,44H8V46H6zM8,44H10V46H8zM10,44H12V46H10zM14,44H16V46H14zM16,44H18V46H16zM20,44H22V46H20zM22,44H24V46H22zM24,44H26V46H24zM26,44H28V46H26zM30,44H32V46H30zM34,44H36V46H34zM36,44H38V46H36zM38,44H40V46H38zM42,44H44V46H42zM44,44H46V46H44zM50,44H52V46H50zM52,44H54V46H52zM60,44H62V46H60zM64,44H66V46H64zM76,44H78V46H76zM6,46H8V48H6zM8,46H10V48H8zM10,46H12V48H10zM12,46H14V48H12zM18,46H20V48H18zM20,46H22V48H20zM28,46H30V48H28zM30,46H32V48H30zM32,46H34V48H32zM36,46H38V48H36zM46,46H48V48H46zM48,46H50V48H48zM54,46H56V48H54zM56,46H58V48H56zM58,46H60V48H58zM64,46H66V48H64zM66,46H68V48H66zM72,46H74V48H72zM76,46H78V48H76zM6,48H8V50H6zM8,48H10V50H8zM12,48H14V50H12zM14,48H16V50H14zM16,48H18V50H16zM18,48H20V50H18zM28,48H30V50H28zM30,48H32V50H30zM36,48H38V50H36zM38,48H40V50H38zM42,48H44V50H42zM46,48H48V50H46zM52,48H54V50H52zM58,48H60V50H58zM60,48H62V50H60zM66,48H68V50H66zM68,48H70V50H68zM72,48H74V50H72zM76,48H78V50H76zM4,50H6V52H4zM6,50H8V52H6zM8,50H10V52H8zM10,50H12V52H10zM12,50H14V52H12zM26,50H28V52H26zM36,50H38V52H36zM40,50H42V52H40zM48,50H50V52H48zM50,50H52V52H50zM52,50H54V52H52zM54,50H56V52H54zM58,50H60V52H58zM64,50H66V52H64zM66,50H68V52H66zM70,50H72V52H70zM76,50H78V52H76zM6,52H8V54H6zM10,52H12V54H10zM12,52H14V54H12zM14,52H16V54H14zM16,52H18V54H16zM20,52H22V54H20zM24,52H26V54H24zM26,52H28V54H26zM28,52H30V54H28zM30,52H32V54H30zM34,52H36V54H34zM38,52H40V54H38zM40,52H42V54H40zM44,52H46V54H44zM48,52H50V54H48zM52,52H54V54H52zM54,52H56V54H54zM66,52H68V54H66zM70,52H72V54H70zM74,52H76V54H74zM76,52H78V54H76zM6,54H8V56H6zM10,54H12V56H10zM18,54H20V56H18zM20,54H22V56H20zM22,54H24V56H22zM26,54H28V56H26zM28,54H30V56H28zM30,54H32V56H30zM32,54H34V56H32zM34,54H36V56H34zM36,54H38V56H36zM38,54H40V56H38zM40,54H42V56H40zM44,54H46V56H44zM52,54H54V56H52zM66,54H68V56H66zM70,54H72V56H70zM74,54H76V56H74zM76,54H78V56H76zM4,56H6V58H4zM6,56H8V58H6zM10,56H12V58H10zM14,56H16V58H14zM16,56H18V58H16zM18,56H20V58H18zM22,56H24V58H22zM26,56H28V58H26zM30,56H32V58H30zM32,56H34V58H32zM36,56H38V58H36zM40,56H42V58H40zM46,56H48V58H46zM52,56H54V58H52zM58,56H60V58H58zM62,56H64V58H62zM64,56H66V58H64zM70,56H72V58H70zM72,56H74V58H72zM76,56H78V58H76zM10,58H12V60H10zM14,58H16V60H14zM18,58H20V60H18zM22,58H24V60H22zM26,58H28V60H26zM28,58H30V60H28zM30,58H32V60H30zM32,58H34V60H32zM34,58H36V60H34zM36,58H38V60H36zM42,58H44V60H42zM44,58H46V60H44zM46,58H48V60H46zM50,58H52V60H50zM52,58H54V60H52zM56,58H58V60H56zM62,58H64V60H62zM64,58H66V60H64zM66,58H68V60H66zM70,58H72V60H70zM4,60H6V62H4zM6,60H8V62H6zM8,60H10V62H8zM12,60H14V62H12zM14,60H16V62H14zM16,60H18V62H16zM20,60H22V62H20zM22,60H24V62H22zM28,60H30V62H28zM30,60H32V62H30zM34,60H36V62H34zM36,60H38V62H36zM40,60H42V62H40zM44,60H46V62H44zM58,60H60V62H58zM60,60H62V62H60zM62,60H64V62H62zM64,60H66V62H64zM66,60H68V62H66zM68,60H70V62H68zM70,60H72V62H70zM20,62H22V64H20zM26,62H28V64H26zM30,62H32V64H30zM40,62H42V64H40zM44,62H46V64H44zM48,62H50V64H48zM50,62H52V64H50zM52,62H54V64H52zM60,62H62V64H60zM68,62H70V64H68zM70,62H72V64H70zM74,62H76V64H74zM76,62H78V64H76zM4,64H6V66H4zM6,64H8V66H6zM8,64H10V66H8zM10,64H12V66H10zM12,64H14V66H12zM14,64H16V66H14zM16,64H18V66H16zM20,64H22V66H20zM24,64H26V66H24zM32,64H34V66H32zM38,64H40V66H38zM40,64H42V66H40zM42,64H44V66H42zM50,64H52V66H50zM52,64H54V66H52zM54,64H56V66H54zM56,64H58V66H56zM60,64H62V66H60zM64,64H66V66H64zM68,64H70V66H68zM70,64H72V66H70zM72,64H74V66H72zM76,64H78V66H76zM4,66H6V68H4zM16,66H18V68H16zM20,66H22V68H20zM24,66H26V68H24zM26,66H28V68H26zM30,66H32V68H30zM34,66H36V68H34zM36,66H38V68H36zM40,66H42V68H40zM48,66H50V68H48zM50,66H52V68H50zM56,66H58V68H56zM60,66H62V68H60zM68,66H70V68H68zM70,66H72V68H70zM74,66H76V68H74zM4,68H6V70H4zM8,68H10V70H8zM10,68H12V70H10zM12,68H14V70H12zM16,68H18V70H16zM22,68H24V70H22zM28,68H30V70H28zM32,68H34V70H32zM38,68H40V70H38zM46,68H48V70H46zM50,68H52V70H50zM58,68H60V70H58zM60,68H62V70H60zM62,68H64V70H62zM64,68H66V70H64zM66,68H68V70H66zM68,68H70V70H68zM74,68H76V70H74zM4,70H6V72H4zM8,70H10V72H8zM10,70H12V72H10zM12,70H14V72H12zM16,70H18V72H16zM22,70H24V72H22zM26,70H28V72H26zM30,70H32V72H30zM32,70H34V72H32zM36,70H38V72H36zM38,70H40V72H38zM40,70H42V72H40zM44,70H46V72H44zM46,70H48V72H46zM48,70H50V72H48zM54,70H56V72H54zM58,70H60V72H58zM68,70H70V72H68zM70,70H72V72H70zM76,70H78V72H76zM4,72H6V74H4zM8,72H10V74H8zM10,72H12V74H10zM12,72H14V74H12zM16,72H18V74H16zM20,72H22V74H20zM22,72H24V74H22zM24,72H26V74H24zM26,72H28V74H26zM36,72H38V74H36zM38,72H40V74H38zM40,72H42V74H40zM42,72H44V74H42zM44,72H46V74H44zM46,72H48V74H46zM48,72H50V74H48zM50,72H52V74H50zM54,72H56V74H54zM56,72H58V74H56zM58,72H60V74H58zM66,72H68V74H66zM68,72H70V74H68zM72,72H74V74H72zM74,72H76V74H74zM76,72H78V74H76zM4,74H6V76H4zM16,74H18V76H16zM36,74H38V76H36zM38,74H40V76H38zM44,74H46V76H44zM56,74H58V76H56zM60,74H62V76H60zM66,74H68V76H66zM68,74H70V76H68zM70,74H72V76H70zM4,76H6V78H4zM6,76H8V78H6zM8,76H10V78H8zM10,76H12V78H10zM12,76H14V78H12zM14,76H16V78H14zM16,76H18V78H16zM22,76H24V78H22zM26,76H28V78H26zM38,76H40V78H38zM50,76H52V78H50zM52,76H54V78H52zM60,76H62V78H60zM66,76H68V78H66zM68,76H70V78H68zM70,76H72V78H70zM76,76H78V78H76z" id="qr-path" fill="#ffffff" fill-opacity="1" fill-rule="nonzero" stroke="none" /></svg>