<svg width="294" height="38" viewBox="0 0 294 38" fill="none" xmlns="http://www.w3.org/2000/svg">
<g clip-path="url(#clip0_3937_295)">
<mask id="mask0_3937_295" style="mask-type:luminance" maskUnits="userSpaceOnUse" x="0" y="0" width="38" height="38">
<path d="M38 0H0V38H38V0Z" fill="white"/>
</mask>
<g mask="url(#mask0_3937_295)">
<path d="M7.29241 37.9995C15.875 10.3012 27.5214 5.45035 37.9999 14.9385V35.5345C37.9999 36.8958 36.8963 37.9995 35.5349 37.9995H7.29241ZM35.5349 0C36.8963 0 37.9999 1.10365 37.9999 2.46501V13.0529C21.9795 -2.22404 6.29149 13.1888 0.000488281 24.3524V2.46501C0.000515548 1.10365 1.10413 9.45373e-09 2.4655 0H35.5349Z" fill="#051413"/>
</g>
<path d="M70.692 34.42C67.388 34.42 64.812 33.72 62.964 32.32C61.144 30.892 59.968 28.624 59.436 25.516H63.216V25.684C63.216 27.28 63.804 28.624 64.98 29.716C66.184 30.808 68.088 31.354 70.692 31.354C73.044 31.354 74.864 30.934 76.152 30.094C77.468 29.226 78.126 27.994 78.126 26.398V26.062C78.126 24.886 77.734 23.976 76.95 23.332C76.166 22.66 74.836 22.128 72.96 21.736L66.87 20.56C64.35 20 62.488 19.132 61.284 17.956C60.08 16.78 59.478 15.156 59.478 13.084C59.478 10.368 60.43 8.282 62.334 6.826C64.266 5.342 66.982 4.6 70.482 4.6C73.758 4.6 76.292 5.314 78.084 6.742C79.904 8.142 81.08 10.396 81.612 13.504H77.874V13.336C77.874 11.768 77.286 10.438 76.11 9.346C74.962 8.226 73.086 7.666 70.482 7.666C68.186 7.666 66.394 8.1 65.106 8.968C63.818 9.808 63.174 11.026 63.174 12.622V12.958C63.174 14.106 63.566 15.03 64.35 15.73C65.134 16.402 66.436 16.92 68.256 17.284L74.346 18.46C76.922 19.02 78.812 19.888 80.016 21.064C81.22 22.24 81.822 23.864 81.822 25.936C81.822 28.652 80.856 30.752 78.924 32.236C76.992 33.692 74.248 34.42 70.692 34.42ZM88.3094 34V5.02H92.0054V18.712L105.445 5.02H109.981L94.5254 20.644L94.3574 17.284L110.611 34H105.823L92.0054 19.72V34H88.3094ZM122.694 34V22.114L111.942 5.02H115.974L124.29 18.46H124.878L133.236 5.02H137.1L126.39 22.114V34H122.694ZM142.038 34V5.02H154.554C157.074 5.02 159.034 5.692 160.434 7.036C161.862 8.38 162.576 10.27 162.576 12.706C162.576 16.374 160.966 18.446 157.746 18.922V19.51C161.162 19.986 162.87 22.156 162.87 26.02C162.87 28.54 162.142 30.5 160.686 31.9C159.23 33.3 157.228 34 154.68 34H142.038ZM154.386 30.976C157.494 30.976 159.048 29.422 159.048 26.314V25.348C159.048 22.24 157.494 20.686 154.386 20.686H145.734V30.976H154.386ZM154.302 17.746C157.27 17.746 158.754 16.262 158.754 13.294V12.496C158.754 9.528 157.27 8.044 154.302 8.044H145.734V17.746H154.302ZM169.438 34V5.02H181.996C184.544 5.02 186.518 5.748 187.918 7.204C189.346 8.632 190.06 10.634 190.06 13.21C190.06 15.702 189.346 17.676 187.918 19.132C186.518 20.588 184.558 21.316 182.038 21.316H173.092V34H169.438ZM186.532 34L177.586 19.09H181.66L190.69 34H186.532ZM181.702 18.376C184.754 18.376 186.28 16.808 186.28 13.672V12.79C186.28 9.654 184.754 8.086 181.702 8.086H173.092V18.376H181.702ZM194.53 34V30.892H198.562V8.128H194.53V5.02H206.248V8.128H202.216V30.892H206.248V34H194.53ZM212.257 34V5.02H223.135C227.251 5.02 230.345 6.196 232.417 8.548C234.489 10.872 235.525 14.526 235.525 19.51C235.525 24.494 234.489 28.162 232.417 30.514C230.345 32.838 227.251 34 223.135 34H212.257ZM215.911 30.892H222.841C225.837 30.892 228.049 30.136 229.477 28.624C230.933 27.084 231.661 24.55 231.661 21.022V17.998C231.661 14.47 230.933 11.95 229.477 10.438C228.049 8.898 225.837 8.128 222.841 8.128H215.911V30.892ZM252.241 34.42C249.777 34.42 247.649 33.86 245.857 32.74C244.093 31.592 242.721 29.912 241.741 27.7C240.789 25.488 240.313 22.758 240.313 19.51C240.313 14.61 241.419 10.9 243.631 8.38C245.843 5.86 248.937 4.6 252.913 4.6C256.105 4.6 258.723 5.412 260.767 7.036C262.811 8.632 264.141 10.984 264.757 14.092H260.977V13.84C260.977 12.86 260.711 11.908 260.179 10.984C259.647 10.032 258.779 9.248 257.575 8.632C256.399 7.988 254.831 7.666 252.871 7.666C249.903 7.666 247.719 8.506 246.319 10.186C244.919 11.838 244.219 14.414 244.219 17.914V21.064C244.219 24.592 244.919 27.196 246.319 28.876C247.747 30.556 249.945 31.396 252.913 31.396C255.881 31.396 258.065 30.612 259.465 29.044C260.893 27.476 261.607 25.278 261.607 22.45V20.056L263.329 22.114H253.081V19.132H265.177V34H261.943V28.96H261.355C260.907 29.968 260.291 30.892 259.507 31.732C258.723 32.544 257.729 33.202 256.525 33.706C255.349 34.182 253.921 34.42 252.241 34.42ZM272.345 34V5.02H291.791V8.128H276.041V17.704H288.557V20.728H276.041V30.892H291.959V34H272.345Z" fill="#051413"/>
</g>
<defs>
<clipPath id="clip0_3937_295">
<rect width="294" height="38" fill="white"/>
</clipPath>
</defs>
</svg>
