<svg width="212" height="47" viewBox="0 0 212 47" fill="none" xmlns="http://www.w3.org/2000/svg">
<g clip-path="url(#clip0_1331_1045)">
<path d="M17.5331 44.3567H0.981687C0.272085 44.3567 -0.303162 43.7829 -0.303162 43.0733V19.4343C-0.303162 18.2568 1.12695 17.718 1.88022 18.6231C7.2832 25.1151 14.797 35.5745 18.643 42.5234C19.1055 43.3591 18.4882 44.3567 17.5331 44.3567Z" fill="white"/>
<path d="M34.3875 44.3567H23.2174C22.7307 44.3567 22.2877 44.0826 22.0627 43.6511C17.9736 35.8075 7.4953 20.5313 0.0323369 12.3303C-0.185051 12.0914 -0.303162 11.7849 -0.303162 11.4619V4.52643C-0.303162 3.81682 0.27059 3.24158 0.980192 3.24158H6.26592C6.58555 3.24158 6.88087 3.34558 7.11112 3.56727C13.8598 10.065 32.0202 37.0217 35.1954 43.1849C35.5204 43.8157 35.0971 44.3567 34.3875 44.3567Z" fill="white"/>
<path d="M40.812 25.4176C40.8118 29.0872 40.8119 37.682 40.8119 43.0221C40.812 44.3187 39.1046 44.8059 38.4176 43.7063C32.372 34.0296 19.7699 14.3289 12.5239 5.45522C11.8155 4.58765 12.4326 3.24158 13.5526 3.24158H24.7464C25.1535 3.24158 25.5304 3.42632 25.7722 3.75384C27.867 6.59125 38.0363 20.4102 40.6453 24.7984C40.7596 24.9906 40.812 25.194 40.812 25.4176Z" fill="white"/>
<path d="M39.5271 3.24158H31.0812C30.0402 3.24158 29.4314 4.41457 30.0304 5.26585L38.4764 17.268C39.1984 18.294 40.812 17.7832 40.812 16.5286V4.52643C40.812 3.81682 40.2367 3.24158 39.5271 3.24158Z" fill="white"/>
<path d="M68.8192 43.8096H61.3698L74.9331 3.78874H83.5489L97.131 43.8096H89.6815L86.4835 33.9412H71.9984L68.8192 43.8096ZM73.8796 28.1178H84.6023L79.3915 11.9961H79.0905L73.8796 28.1178Z" fill="white"/>
<path d="M101.676 43.8096V3.78874H108.655V37.7322H125.623V43.8096H101.676Z" fill="white"/>
<path d="M131.151 43.8096V3.78874H145.598C154.459 3.78874 159.18 9.39713 159.18 17.0378C159.18 24.7371 154.402 30.2869 145.504 30.2869H138.13V43.8096H131.151ZM138.13 24.3268H144.564C149.756 24.3268 152.07 21.2978 152.07 17.0378C152.07 12.7778 149.756 9.84658 144.526 9.84658H138.13V24.3268Z" fill="white"/>
<path d="M171.692 3.78874V43.8096H164.713V3.78874H171.692Z" fill="white"/>
<path d="M211.697 17.2919H204.661C203.853 12.5042 200.184 9.74887 195.5 9.74887C189.198 9.74887 184.759 14.771 184.759 23.7992C184.759 32.9836 189.236 37.8494 195.481 37.8494C200.09 37.8494 203.777 35.2113 204.661 30.5214L211.697 30.5605C210.625 38.2012 204.549 44.3567 195.387 44.3567C185.229 44.3567 177.742 36.716 177.742 23.7992C177.742 10.8627 185.323 3.24158 195.387 3.24158C203.928 3.24158 210.512 8.40051 211.697 17.2919Z" fill="white"/>
</g>
<defs>
<clipPath id="clip0_1331_1045">
<rect width="212" height="47" fill="white"/>
</clipPath>
</defs>
</svg>
