<svg width="212" height="42" viewBox="0 0 212 42" fill="none" xmlns="http://www.w3.org/2000/svg">
<path d="M17.8362 41.1152H1.28485C0.575246 41.1152 0 40.5413 0 39.8317V16.1928C0 15.0152 1.43011 14.4764 2.18339 15.3815C7.58636 21.8736 15.1001 32.3329 18.9461 39.2819C19.4086 40.1175 18.7914 41.1152 17.8362 41.1152Z" fill="#0A0E1C"/>
<path d="M34.6907 41.1152H23.5205C23.0339 41.1152 22.5908 40.841 22.3658 40.4095C18.2768 32.5659 7.79847 17.2897 0.335498 9.08876C0.118111 8.84987 0 8.54331 0 8.22032V1.28485C0 0.575246 0.573751 0 1.28335 0H6.56909C6.88871 0 7.18403 0.104005 7.41428 0.325693C14.163 6.82342 32.3233 33.7801 35.4986 39.9433C35.8236 40.5741 35.4003 41.1152 34.6907 41.1152Z" fill="#0A0E1C"/>
<path d="M41.1151 22.176C41.115 25.8456 41.115 34.4405 41.1151 39.7806C41.1151 41.0771 39.4077 41.5643 38.7208 40.4647C32.6752 30.7881 20.073 11.0873 12.8271 2.21365C12.1186 1.34607 12.7357 0 13.8558 0H25.0495C25.4566 0 25.8336 0.184745 26.0754 0.512265C28.1702 3.34967 38.3395 17.1686 40.9484 21.5568C41.0627 21.749 41.1151 21.9524 41.1151 22.176Z" fill="#0A0E1C"/>
<path d="M39.8303 0H31.3843C30.3434 0 29.7345 1.173 30.3336 2.02427L38.7795 14.0264C39.5015 15.0524 41.1152 14.5416 41.1152 13.287V1.28485C41.1152 0.575246 40.5399 0 39.8303 0Z" fill="#0A0E1C"/>
<path d="M69.1225 40.568H61.673L75.2363 0.54716H83.8521L97.4342 40.568H89.9848L86.7867 30.6996H72.3016L69.1225 40.568ZM74.1828 24.8762H84.9056L79.6947 8.75456H79.3937L74.1828 24.8762Z" fill="#0A0E1C"/>
<path d="M101.979 40.568V0.54716H108.958V34.4906H125.926V40.568H101.979Z" fill="#0A0E1C"/>
<path d="M131.454 40.568V0.54716H145.902C154.762 0.54716 159.484 6.15555 159.484 13.7962C159.484 21.4956 154.705 27.0453 145.807 27.0453H138.433V40.568H131.454ZM138.433 21.0852H144.867C150.059 21.0852 152.373 18.0563 152.373 13.7962C152.373 9.53621 150.059 6.605 144.829 6.605H138.433V21.0852Z" fill="#0A0E1C"/>
<path d="M171.995 0.54716V40.568H165.016V0.54716H171.995Z" fill="#0A0E1C"/>
<path d="M212 14.0503H204.965C204.156 9.26263 200.487 6.5073 195.803 6.5073C189.501 6.5073 185.062 11.5294 185.062 20.5576C185.062 29.742 189.539 34.6079 195.784 34.6079C200.393 34.6079 204.08 31.9698 204.965 27.2798L212 27.3189C210.928 34.9596 204.852 41.1152 195.69 41.1152C185.532 41.1152 178.045 33.4745 178.045 20.5576C178.045 7.62115 185.626 0 195.69 0C204.231 0 210.815 5.15894 212 14.0503Z" fill="#0A0E1C"/>
</svg>
